<?xml version="1.0" standalone="no"?>
<!DOCTYPE svg PUBLIC "-//W3C//DTD SVG 20010904//EN"
 "http://www.w3.org/TR/2001/REC-SVG-20010904/DTD/svg10.dtd">
<svg version="1.0" xmlns="http://www.w3.org/2000/svg"
 width="279.000000pt" height="279.000000pt" viewBox="0 0 279.000000 279.000000"
 preserveAspectRatio="xMidYMid meet">
<metadata>
Created by potrace 1.14, written by Peter Selinger 2001-2017
</metadata>
<g transform="translate(0.000000,279.000000) scale(0.100000,-0.100000)"
fill="#000000" stroke="none">
<path d="M698 2663 c7 -3 16 -2 19 1 4 3 -2 6 -13 5 -11 0 -14 -3 -6 -6z"/>
<path d="M2588 2493 c7 -3 16 -2 19 1 4 3 -2 6 -13 5 -11 0 -14 -3 -6 -6z"/>
<path d="M1510 2339 c-168 -9 -363 -18 -435 -19 -111 -2 -212 -13 -180 -20 21
-4 734 27 837 36 48 5 72 3 83 -6 11 -9 15 -9 15 -1 0 7 5 9 10 6 6 -4 8 -11
5 -16 -7 -11 42 -32 56 -23 5 3 9 -41 9 -105 0 -67 4 -111 10 -111 6 0 10 39
10 98 0 60 4 92 9 83 7 -11 10 -10 14 5 2 10 5 -30 6 -91 l1 -110 -92 0 c-51
0 -145 -4 -208 -8 -63 -5 -149 -10 -190 -12 -41 -2 -115 -7 -165 -11 -174 -13
-390 -20 -398 -13 -5 3 -10 32 -12 63 -4 72 -15 85 -16 20 -1 -43 -2 -45 -9
-19 -14 54 -11 132 5 145 19 16 19 34 0 53 -11 12 -12 17 -2 20 7 3 5 6 -5 6
-10 1 -18 5 -18 9 0 7 -99 32 -128 32 -9 0 -12 -118 -14 -472 l-3 -473 -33 -3
c-39 -4 -33 -22 9 -22 27 0 29 -3 29 -35 0 -31 -3 -35 -27 -37 -16 -1 -36 -2
-45 -3 -9 0 -20 -4 -24 -7 -6 -6 5 -10 74 -24 32 -7 26 -46 -8 -55 l-25 -6 28
-8 c19 -5 26 -12 22 -22 -4 -12 0 -14 21 -9 17 5 23 3 19 -4 -3 -5 3 -10 14
-10 30 0 125 -26 151 -42 18 -10 24 -10 27 0 3 6 14 12 25 12 17 0 18 3 8 15
-7 8 -23 15 -36 15 -13 0 -24 3 -25 8 0 4 -2 31 -3 60 -3 45 -1 52 15 52 11 0
19 -7 19 -15 0 -23 28 -32 80 -25 60 8 68 14 51 43 -15 24 -23 82 -15 109 8
27 34 9 34 -23 0 -21 5 -29 18 -29 28 0 52 -22 54 -52 2 -30 18 -28 18 3 0 10
5 19 11 19 5 0 8 4 4 9 -3 6 3 15 14 21 21 11 40 -3 20 -16 -8 -4 -7 -9 2 -15
24 -15 37 -10 32 11 -3 11 0 20 6 20 6 0 11 -6 11 -12 0 -9 4 -8 10 2 8 12 10
9 10 -11 0 -31 32 -47 95 -47 39 0 39 1 18 15 -29 20 -30 37 -1 22 18 -10 20
-9 14 7 -4 13 3 9 20 -10 24 -27 28 -28 87 -22 34 3 113 9 175 13 101 5 112 4
112 -11 0 -10 -5 -26 -10 -37 -10 -18 -7 -19 72 -20 46 0 77 -3 71 -6 -22 -8
-14 -23 12 -23 14 0 25 -5 25 -11 0 -7 10 -9 25 -7 14 3 28 1 31 -3 3 -5 -3
-9 -13 -10 -10 -1 0 -5 22 -10 22 -6 51 -7 63 -4 16 4 21 2 17 -5 -4 -7 18 -9
72 -6 43 3 67 2 54 -2 -23 -7 -22 -8 15 -19 67 -20 131 -33 171 -34 l38 -1
-45 -9 c-25 -5 -51 -7 -57 -4 -7 2 -13 1 -13 -4 0 -4 37 -7 83 -7 72 1 83 3
83 19 0 9 -6 17 -13 17 -7 0 -13 4 -13 9 0 5 -15 12 -32 15 -18 4 -40 8 -48
10 -8 2 -36 6 -62 11 -33 5 -49 13 -53 26 -5 15 -13 18 -33 13 -21 -4 -24 -3
-12 5 12 9 10 11 -11 11 -14 0 -30 5 -36 11 -7 7 -62 14 -131 17 l-120 5 0 83
c0 59 3 81 12 78 15 -6 82 190 95 283 16 106 17 103 -28 103 l-40 0 1 -81 c0
-50 -7 -105 -18 -145 -19 -64 -26 -74 -40 -52 -4 7 -3 8 5 4 9 -6 12 24 10
128 l-2 136 -31 0 c-17 0 -150 -9 -296 -19 -673 -50 -640 -49 -640 -15 0 17 4
23 13 18 9 -6 9 -5 1 7 -15 18 -35 89 -25 89 4 0 24 -9 46 -20 22 -11 46 -18
55 -15 14 4 87 8 335 20 92 5 160 9 305 20 210 16 280 17 280 6 0 -7 3 -10 8
-8 4 3 16 1 27 -4 17 -6 16 -8 -9 -8 -36 -1 -32 -6 13 -15 l34 -6 -7 42 c-7
48 -27 68 -66 68 -20 0 -29 8 -42 39 -17 38 -17 38 -75 39 -32 0 -63 -4 -69
-9 -5 -4 -23 -7 -40 -6 -23 2 -28 -2 -26 -15 2 -14 -4 -18 -30 -18 -170 -3
-344 -9 -395 -15 -53 -6 -63 -5 -63 7 0 16 -60 17 -267 2 -65 -4 -93 -3 -93 5
0 15 26 19 160 25 63 3 184 11 269 16 85 6 250 15 367 20 117 5 222 13 233 19
16 9 20 8 24 -7 3 -9 5 61 6 156 l1 172 -77 -1 c-43 -1 -215 -10 -383 -20z
m67 -396 c-15 -2 -25 -8 -22 -13 6 -9 -110 -24 -140 -19 -10 2 -20 9 -22 16
-3 8 14 13 54 16 81 5 163 5 130 0z m343 -23 c-111 -17 -660 -48 -650 -37 3 3
57 8 120 12 63 3 122 8 130 10 8 2 74 7 145 10 72 4 131 8 133 10 1 1 42 3 90
3 82 0 84 0 32 -8z m-671 -40 c-8 -5 -79 -11 -159 -14 -87 -3 -127 -2 -100 3
25 5 83 9 130 10 46 1 85 3 86 4 1 1 15 3 30 4 20 1 24 -1 13 -7z m284 -17
c-13 -2 -35 -2 -50 0 -16 2 -5 4 22 4 28 0 40 -2 28 -4z m417 -148 c0 -8 -2
-15 -4 -15 -2 0 -6 7 -10 15 -3 8 -1 15 4 15 6 0 10 -7 10 -15z m-140 -233
c12 -37 12 -45 -1 -53 -29 -18 -37 -10 -32 34 3 23 6 50 7 59 1 25 10 10 26
-40z m68 -53 c2 -32 1 -33 -13 -15 -18 24 -20 59 -2 54 6 -3 13 -20 15 -39z
m48 -96 c-3 -6 3 -14 12 -16 12 -3 11 -5 -5 -6 -22 -1 -23 2 -22 77 l1 77 9
-60 c5 -33 7 -65 5 -72z m-686 52 c-17 -32 -24 -25 -15 15 5 23 10 29 18 21 8
-8 7 -18 -3 -36z m-383 13 c-3 -8 -6 -5 -6 6 -1 11 2 17 5 13 3 -3 4 -12 1
-19z m442 -27 c-1 -13 -2 -13 -6 2 -2 9 -9 17 -14 17 -5 0 -9 5 -9 11 0 8 5 8
15 -1 8 -7 14 -20 14 -29z m138 17 c-3 -8 -6 -5 -6 6 -1 11 2 17 5 13 3 -3 4
-12 1 -19z m445 -28 c3 -16 1 -30 -4 -30 -4 0 -8 14 -8 30 0 17 2 30 4 30 2 0
6 -13 8 -30z m-915 -2 c-3 -8 -6 -5 -6 6 -1 11 2 17 5 13 3 -3 4 -12 1 -19z
m453 -8 c0 -5 -4 -10 -10 -10 -5 0 -10 5 -10 10 0 6 5 10 10 10 6 0 10 -4 10
-10z m30 0 c0 -5 -5 -10 -11 -10 -5 0 -7 5 -4 10 3 6 8 10 11 10 2 0 4 -4 4
-10z m303 -16 c30 -9 10 -21 -38 -22 -53 -2 -66 3 -59 23 6 14 46 13 97 -1z
m-253 -9 c0 -7 -30 -13 -34 -7 -3 4 4 9 15 9 10 1 19 0 19 -2z m-500 -42 c-11
-17 -11 -17 -6 0 3 10 6 24 7 30 0 9 2 9 5 0 3 -7 0 -20 -6 -30z m-20 8 c0 -5
-9 -7 -20 -4 -11 3 -20 7 -20 9 0 2 9 4 20 4 11 0 20 -4 20 -9z m-103 -67 c-3
-3 -12 -4 -19 -1 -8 3 -5 6 6 6 11 1 17 -2 13 -5z m1241 -41 c-10 -2 -28 -2
-40 0 -13 2 -5 4 17 4 22 1 32 -1 23 -4z"/>
<path d="M2598 2343 c7 -3 16 -2 19 1 4 3 -2 6 -13 5 -11 0 -14 -3 -6 -6z"/>
<path d="M648 2163 c6 -2 18 -2 25 0 6 3 1 5 -13 5 -14 0 -19 -2 -12 -5z"/>
<path d="M338 2143 c6 -2 18 -2 25 0 6 3 1 5 -13 5 -14 0 -19 -2 -12 -5z"/>
<path d="M568 2093 c7 -3 16 -2 19 1 4 3 -2 6 -13 5 -11 0 -14 -3 -6 -6z"/>
<path d="M1648 1983 c12 -2 19 -9 16 -15 -4 -5 1 -8 10 -6 31 6 21 23 -14 25
-19 0 -25 -1 -12 -4z"/>
<path d="M348 1873 c12 -2 30 -2 40 0 9 3 -1 5 -23 4 -22 0 -30 -2 -17 -4z"/>
<path d="M288 1843 c6 -2 18 -2 25 0 6 3 1 5 -13 5 -14 0 -19 -2 -12 -5z"/>
<path d="M195 1820 c27 -12 43 -12 25 0 -8 5 -22 9 -30 9 -10 0 -8 -3 5 -9z"/>
<path d="M36 1801 c-18 -7 -18 -8 5 -14 35 -10 59 -7 29 4 -17 5 -6 7 35 4 44
-3 52 -2 30 4 -38 11 -75 12 -99 2z"/>
<path d="M1550 1800 c0 -5 5 -10 10 -10 6 0 10 5 10 10 0 6 -4 10 -10 10 -5 0
-10 -4 -10 -10z"/>
<path d="M1038 1793 c6 -2 18 -2 25 0 6 3 1 5 -13 5 -14 0 -19 -2 -12 -5z"/>
<path d="M518 1783 c7 -3 16 -2 19 1 4 3 -2 6 -13 5 -11 0 -14 -3 -6 -6z"/>
<path d="M80 1760 c8 -5 22 -10 30 -10 13 0 13 1 0 10 -8 5 -22 10 -30 10 -13
0 -13 -1 0 -10z"/>
<path d="M0 1719 c0 -8 64 -19 100 -18 l25 1 -25 9 c-15 5 21 6 91 2 85 -4
118 -2 124 7 5 9 -31 11 -154 9 -88 -2 -161 -6 -161 -10z"/>
<path d="M558 1723 c6 -2 18 -2 25 0 6 3 1 5 -13 5 -14 0 -19 -2 -12 -5z"/>
<path d="M165 1640 c44 -11 67 -11 60 0 -3 6 -25 9 -48 9 -40 -1 -40 -2 -12
-9z"/>
<path d="M402 1645 c7 -7 198 -8 206 -1 3 3 -43 6 -103 6 -60 0 -106 -2 -103
-5z"/>
<path d="M158 1583 c6 -2 18 -2 25 0 6 3 1 5 -13 5 -14 0 -19 -2 -12 -5z"/>
<path d="M33 1573 c15 -2 37 -2 50 0 12 2 0 4 -28 4 -27 0 -38 -2 -22 -4z"/>
<path d="M2270 1576 c0 -2 9 -6 20 -9 11 -3 18 -1 14 4 -5 9 -34 13 -34 5z"/>
<path d="M636 1541 c-4 -5 1 -8 9 -7 21 3 31 16 12 16 -9 0 -18 -4 -21 -9z"/>
<path d="M266 1511 c-5 -7 3 -11 21 -12 l28 -1 -25 -7 c-15 -4 38 -12 140 -20
91 -7 176 -17 190 -22 22 -8 23 -8 7 5 -9 7 -49 17 -87 20 -39 4 -70 11 -70
15 0 5 -24 11 -52 15 -29 3 -74 9 -99 12 -30 4 -49 2 -53 -5z"/>
<path d="M2083 1463 c9 -2 25 -2 35 0 9 3 1 5 -18 5 -19 0 -27 -2 -17 -5z"/>
<path d="M70 1445 c41 -7 67 -13 58 -14 -9 0 -19 -4 -21 -8 -6 -9 84 -6 123 4
17 4 -8 10 -75 19 -126 16 -185 16 -85 -1z"/>
<path d="M2030 1407 c0 -3 25 -11 55 -17 30 -6 53 -16 50 -21 -4 -5 5 -9 18
-9 14 0 38 -7 53 -15 16 -8 54 -15 84 -15 39 0 51 -3 40 -10 -13 -8 -12 -10 3
-10 11 0 15 -5 11 -11 -4 -8 1 -9 16 -4 16 5 20 4 15 -5 -5 -9 -1 -10 15 -5
13 4 20 3 17 -2 -3 -5 32 -10 81 -12 85 -2 105 3 48 13 -15 3 -35 11 -43 18
-13 10 -17 10 -20 1 -3 -7 -9 -13 -15 -13 -6 0 -8 6 -5 13 4 10 -16 17 -72 26
-42 6 -104 21 -137 31 -34 11 -70 20 -81 20 -10 0 -23 4 -28 9 -11 10 -105 26
-105 18z"/>
<path d="M176 1376 c6 -16 48 -26 107 -26 40 0 40 0 21 18 -25 24 -137 31
-128 8z"/>
<path d="M0 1348 c0 -4 7 -8 15 -8 8 0 15 4 15 8 0 5 -7 9 -15 9 -8 0 -15 -4
-15 -9z"/>
<path d="M105 1310 c46 -12 143 -12 125 0 -8 5 -46 9 -85 9 -53 -1 -63 -3 -40
-9z"/>
<path d="M565 1310 c3 -5 11 -10 16 -10 6 0 7 5 4 10 -3 6 -11 10 -16 10 -6 0
-7 -4 -4 -10z"/>
<path d="M2753 1313 c9 -2 23 -2 30 0 6 3 -1 5 -18 5 -16 0 -22 -2 -12 -5z"/>
<path d="M1095 1290 c-3 -5 -1 -10 4 -10 6 0 11 5 11 10 0 6 -2 10 -4 10 -3 0
-8 -4 -11 -10z"/>
<path d="M2620 1260 c0 -6 7 -10 15 -10 8 0 15 2 15 4 0 2 -7 6 -15 10 -8 3
-15 1 -15 -4z"/>
<path d="M58 1253 c6 -2 18 -2 25 0 6 3 1 5 -13 5 -14 0 -19 -2 -12 -5z"/>
<path d="M278 1253 c7 -3 16 -2 19 1 4 3 -2 6 -13 5 -11 0 -14 -3 -6 -6z"/>
<path d="M2670 1248 c0 -4 7 -8 15 -8 8 0 15 4 15 8 0 5 -7 9 -15 9 -8 0 -15
-4 -15 -9z"/>
<path d="M2710 1240 c0 -5 17 -10 38 -9 30 0 33 2 17 9 -28 12 -55 12 -55 0z"/>
<path d="M1354 1218 c-15 -13 -48 -25 -73 -29 -45 -6 -44 -6 17 -8 38 0 61 3
57 9 -3 5 6 15 21 23 15 8 22 17 17 20 -6 4 -23 -3 -39 -15z"/>
<path d="M1419 1224 c-7 -9 -22 -20 -34 -25 -12 -6 21 -7 90 -5 61 3 110 5
110 6 0 1 15 3 34 6 19 2 37 7 40 10 6 6 -115 -2 -199 -13 -40 -5 -44 -4 -32
10 8 9 23 18 35 20 19 4 18 4 -4 6 -15 0 -33 -6 -40 -15z"/>
<path d="M100 1220 c-19 -4 -30 -8 -25 -9 37 -8 59 -12 135 -22 47 -7 91 -12
98 -12 6 0 12 -4 12 -8 0 -4 33 -7 73 -6 66 2 73 0 69 -15 -4 -15 3 -18 43
-18 37 0 52 -5 67 -22 l20 -23 -63 -3 c-44 -2 -59 -6 -49 -12 11 -7 2 -10 -28
-10 -26 0 -41 -4 -37 -10 8 -13 -27 -13 -74 -1 -108 28 -255 46 -246 30 3 -5
-8 -1 -25 9 l-30 17 28 3 c15 2 34 5 42 8 30 11 -13 22 -61 17 l-47 -5 -1 -79
c-1 -72 1 -79 19 -80 11 -1 25 -3 30 -4 6 -1 26 -3 45 -4 28 -1 35 -5 35 -21
0 -19 -6 -21 -60 -22 -3 -1 -20 2 -37 5 l-33 7 0 -159 0 -159 73 -8 c39 -4 75
-7 80 -6 4 1 7 -2 7 -8 0 -6 3 -9 8 -8 4 1 19 -2 34 -6 41 -12 24 -26 -30 -25
-33 0 -41 3 -27 8 16 7 14 9 -14 14 -19 4 -55 7 -82 7 l-48 0 -1 -290 0 -290
1395 0 c923 0 1395 3 1395 10 0 6 -17 11 -37 11 -35 2 -35 2 -8 6 46 7 63 43
20 43 -27 0 -73 18 -93 37 -9 9 -5 13 20 16 21 2 12 4 -24 5 -32 1 -88 13
-126 27 -38 14 -79 25 -91 25 -11 0 -21 4 -21 9 0 5 -12 12 -27 14 -21 3 -18
4 12 6 22 1 91 -6 152 -16 92 -13 111 -19 102 -30 -9 -10 -6 -13 16 -13 15 0
38 -9 51 -19 22 -17 23 -20 7 -24 -10 -3 -3 -5 15 -6 l32 -1 0 70 c0 69 0 70
-27 71 l-28 1 25 7 c17 5 26 15 28 33 3 27 3 27 -50 22 -38 -3 -47 -2 -33 5
11 5 31 10 45 11 24 2 23 3 -5 10 -30 8 -30 8 8 9 l38 1 -3 67 c-3 73 3 67
-91 80 -60 8 -53 14 23 22 66 7 80 22 28 32 -33 6 -31 7 24 13 6 0 13 15 15
32 5 41 -4 43 -179 51 -76 3 -135 9 -133 13 5 8 -68 17 -220 25 -109 6 -251
31 -260 46 -3 4 7 5 22 2 16 -3 64 -8 108 -13 44 -4 118 -13 164 -20 60 -8 86
-9 94 -1 8 8 2 11 -21 11 -34 0 -44 16 -14 23 9 3 -5 3 -33 1 -36 -3 -46 -2
-35 6 8 5 32 10 53 10 20 0 37 5 37 10 0 6 15 9 33 9 l32 -1 -30 -7 c-22 -5
-2 -9 71 -15 55 -4 113 -4 130 -1 l29 7 -24 -17 c-31 -23 -12 -35 54 -34 44 1
46 2 20 9 l-30 8 27 1 c41 2 45 21 4 21 -19 0 -38 5 -41 10 -3 6 -22 10 -41
10 -19 0 -33 4 -30 9 10 15 -51 19 -269 17 -115 -1 -196 1 -180 4 27 5 24 7
-22 13 -28 4 -72 16 -97 27 -25 11 -78 24 -118 29 -48 5 -59 9 -33 10 22 0 71
-4 109 -9 42 -6 73 -7 80 -1 6 5 22 11 36 14 14 2 -11 5 -55 7 -121 3 -149 18
-40 20 50 1 83 4 75 7 -8 2 -21 7 -29 9 -8 2 -12 6 -10 9 6 5 180 -22 187 -30
3 -3 -15 -6 -39 -6 -37 -1 -33 -3 25 -10 38 -5 74 -13 80 -18 6 -4 70 -8 141
-8 72 0 99 2 61 4 -38 2 -74 10 -81 17 -7 7 -48 19 -90 26 -42 7 -79 19 -81
25 -4 9 -39 13 -115 13 -68 1 -108 -2 -104 -8 4 -6 -16 -8 -52 -4 -73 6 -81
14 -17 15 l49 1 -48 10 c-28 6 -52 7 -57 2 -6 -6 -62 -6 -132 -1 -68 4 -132 6
-143 4 -11 -3 5 -5 35 -6 31 0 60 -5 65 -10 6 -5 28 -11 50 -13 22 -2 -18 -7
-90 -12 -90 -6 -124 -11 -110 -17 12 -6 -11 -7 -64 -4 -46 3 -92 10 -103 16
-11 6 -29 9 -39 6 -10 -3 -17 -1 -13 4 3 5 -12 10 -33 11 -21 0 -51 3 -68 4
-16 2 -77 4 -135 5 -103 2 -104 2 -45 11 33 5 86 7 118 4 37 -4 56 -2 52 4 -4
6 17 10 55 10 38 0 59 4 55 10 -3 6 -15 10 -25 10 -10 0 -20 4 -22 10 -1 5
-41 14 -88 19 -47 6 -101 15 -120 21 -19 5 -56 10 -81 10 -26 0 -62 7 -80 15
l-34 14 59 1 c77 0 66 10 -15 14 -116 6 -196 18 -174 27 14 5 6 8 -27 8 -27 1
-48 5 -48 10 0 5 14 9 30 9 17 -1 33 2 36 5 4 4 -22 6 -57 6 -62 0 -119 8
-128 17 -2 2 4 4 14 4 36 0 -29 37 -80 45 -27 5 -57 10 -65 11 -25 5 -60 -7
-54 -18 4 -7 -18 -8 -67 -3 -41 5 -80 8 -86 8 -7 0 -13 4 -13 9 0 9 -60 9
-110 -2z m565 -100 c-3 -5 -12 -10 -18 -10 -7 0 -6 4 3 10 19 12 23 12 15 0z
m-80 -97 c61 -4 117 -7 125 -6 8 1 18 -4 22 -10 5 -8 8 -5 8 8 0 12 3 16 8 9
9 -14 101 -24 108 -13 3 5 -19 9 -48 10 -42 1 -48 3 -28 9 41 13 123 10 150
-5 24 -14 24 -14 -17 -11 -53 5 -57 -11 -5 -17 20 -2 -3 -3 -53 -1 -70 2 -94
-1 -107 -13 -25 -22 -269 -30 -401 -12 -57 7 -89 15 -73 17 22 3 26 6 15 13
-15 9 57 8 76 -2 6 -2 30 -2 55 1 38 5 41 7 22 13 -28 10 -18 31 12 23 11 -3
71 -9 131 -13z m520 -33 c13 -5 -5 -8 -52 -7 -40 1 -73 5 -73 10 0 10 100 8
125 -3z m-347 -64 c68 -4 80 -16 17 -16 -51 0 -56 -11 -8 -14 37 -3 97 -35 68
-36 -44 -1 10 -18 79 -25 39 -4 82 -13 95 -20 22 -11 18 -12 -40 -18 -35 -4
-89 -2 -119 4 -30 6 -75 14 -100 18 -25 5 -38 9 -30 10 13 1 13 2 0 11 -8 5
-42 10 -75 10 -42 0 -56 3 -45 10 12 8 9 10 -12 10 -36 0 -47 20 -11 21 15 1
31 1 36 0 4 0 7 4 7 9 0 6 -21 11 -47 11 -27 1 -40 3 -30 6 9 2 17 9 17 15 0
7 24 8 73 4 39 -4 96 -9 125 -10z m472 -29 l125 -13 -47 -12 c-52 -13 -91 -15
-102 -5 -7 7 -15 9 -98 21 -32 4 -60 11 -64 15 -10 9 37 8 186 -6z m-1145 -8
c6 -3 37 -12 70 -20 l60 -14 -40 -5 c-22 -3 -62 1 -90 8 -73 20 -77 21 -72 29
6 9 57 10 72 2z m793 4 c-10 -2 -26 -2 -35 0 -10 3 -2 5 17 5 19 0 27 -2 18
-5z m188 -19 l29 -16 -40 7 c-22 4 -67 11 -100 15 l-60 7 71 1 c49 2 81 -3
100 -14z m771 10 c-3 -3 -12 -4 -19 -1 -8 3 -5 6 6 6 11 1 17 -2 13 -5z m-54
-11 c-7 -2 -19 -2 -25 0 -7 3 -2 5 12 5 14 0 19 -2 13 -5z m-415 -10 c-10 -2
-18 -9 -18 -14 0 -5 -11 -9 -25 -9 -14 0 -25 4 -25 9 0 11 25 19 60 19 16 0
19 -2 8 -5z m965 0 c-7 -2 -19 -2 -25 0 -7 3 -2 5 12 5 14 0 19 -2 13 -5z
m-2032 -12 c-20 -13 13 -21 69 -16 25 1 50 0 55 -4 6 -4 25 -8 44 -10 19 -2
44 -7 56 -11 12 -4 40 -7 62 -7 29 2 39 -1 32 -9 -5 -6 -34 -11 -63 -10 -30 1
-52 -2 -50 -6 5 -8 -188 -2 -219 8 -15 4 -19 3 -12 -4 6 -6 21 -13 35 -15 14
-3 -11 -3 -55 0 -44 3 -85 6 -92 6 -7 0 -10 3 -8 7 2 4 -19 12 -48 19 -29 6
-59 16 -67 21 -21 14 64 13 112 -1 53 -14 210 -28 227 -19 10 5 6 8 -10 8 -13
1 -49 5 -79 10 -30 6 -69 9 -87 8 -18 -1 -33 2 -33 6 0 5 20 9 45 9 58 2 62 3
71 12 4 4 12 7 18 7 6 0 5 -4 -3 -9z m46 3 c-3 -3 -12 -4 -19 -1 -8 3 -5 6 6
6 11 1 17 -2 13 -5z m1136 -11 c-7 -2 -21 -2 -30 0 -10 3 -4 5 12 5 17 0 24
-2 18 -5z m-250 -10 c-18 -2 -48 -2 -65 0 -18 2 -4 4 32 4 36 0 50 -2 33 -4z
m230 -30 c-7 -2 -19 -2 -25 0 -7 3 -2 5 12 5 14 0 19 -2 13 -5z m220 -40 c-13
-2 -33 -2 -45 0 -13 2 -3 4 22 4 25 0 35 -2 23 -4z m597 -3 c11 -7 2 -10 -33
-10 -30 0 -46 4 -42 10 8 13 55 13 75 0z m-675 -20 l50 -7 -55 -1 c-30 0 -66
4 -80 8 -24 8 -24 8 5 8 17 0 53 -3 80 -8z m-1305 -20 c12 -8 12 -10 -5 -9
-11 0 -29 4 -40 9 -18 8 -18 9 5 9 14 0 32 -4 40 -9z m876 3 c-3 -4 -17 -8
-29 -10 -17 -2 -19 -1 -7 7 17 11 47 14 36 3z m94 -3 c0 -13 -50 -13 -70 0
-11 7 -4 10 28 10 23 0 42 -4 42 -10z m873 3 c-7 -2 -19 -2 -25 0 -7 3 -2 5
12 5 14 0 19 -2 13 -5z m-1662 -29 c45 -5 68 -3 73 5 8 12 69 14 128 5 43 -7
41 -24 -2 -24 -31 0 -48 -15 -28 -23 7 -3 -7 -7 -32 -8 -25 -1 -54 -3 -65 -4
-11 0 -42 5 -70 12 -27 7 -69 13 -92 13 -24 0 -43 5 -43 10 0 6 -10 10 -22 11
-13 0 -17 3 -10 6 6 2 10 8 7 12 -2 4 17 4 43 0 26 -5 77 -12 113 -15z m1597
-14 c18 0 31 -4 28 -9 -3 -5 20 -12 52 -16 31 -4 62 -10 67 -13 6 -4 42 -14
80 -24 42 -10 60 -17 45 -19 -16 -1 -10 -4 20 -9 25 -4 -16 -5 -90 -2 -74 2
-140 9 -147 14 -7 5 -13 5 -17 0 -3 -5 -15 -12 -26 -15 -11 -3 -18 -1 -14 4 3
5 -7 9 -21 9 -15 0 -24 4 -20 10 3 6 15 10 26 10 11 0 17 5 14 10 -3 6 -17 10
-31 10 -14 0 -23 5 -21 12 1 7 -9 14 -22 16 -19 3 -21 6 -10 13 8 5 23 7 34 4
11 -2 35 -5 53 -5z m-1389 -45 c-8 -7 -78 -9 -85 -2 -4 4 14 7 41 7 27 0 46
-2 44 -5z m1801 -59 c0 -8 -51 -13 -56 -5 -3 5 9 9 25 9 17 0 31 -2 31 -4z
m-1977 -13 c-7 -2 -21 -2 -30 0 -10 3 -4 5 12 5 17 0 24 -2 18 -5z m1782 -3
c3 -5 0 -11 -7 -11 -26 -3 -64 -2 -118 1 -50 2 -52 3 -20 9 61 12 138 12 145
1z m-1982 -21 c9 0 17 -6 17 -13 0 -10 -11 -11 -47 -4 -27 5 -53 9 -60 10 -7
1 -9 6 -6 11 3 5 22 6 42 2 20 -4 44 -7 54 -6z m1724 5 c-3 -3 -12 -4 -19 -1
-8 3 -5 6 6 6 11 1 17 -2 13 -5z m440 -35 c34 -10 75 -19 90 -19 21 0 24 -3
14 -9 -8 -5 -33 -7 -55 -5 -23 3 -57 2 -76 -2 -30 -5 -32 -8 -15 -14 11 -5 35
-9 53 -9 18 -1 31 -5 27 -10 -3 -5 25 -13 62 -16 70 -8 117 -23 78 -26 -11 -1
-31 -1 -45 0 -23 1 -23 0 -5 -8 11 -5 53 -7 94 -4 53 5 72 3 67 -5 -3 -6 -29
-11 -56 -10 -63 0 -88 -14 -40 -23 32 -6 30 -6 -15 -7 -51 -1 -190 30 -180 40
3 3 -27 15 -67 28 -40 12 -78 26 -84 31 -6 5 -50 13 -98 18 -48 5 -89 11 -92
14 -3 3 21 9 53 13 55 8 56 8 23 15 -35 6 -35 6 -4 8 16 0 35 -4 41 -10 7 -7
12 -6 16 5 5 12 -1 16 -26 17 -30 2 -30 2 8 9 58 10 161 1 232 -21z m-2110 5
c-3 -3 -12 -4 -19 -1 -8 3 -5 6 6 6 11 1 17 -2 13 -5z m-260 -10 c-3 -3 -12
-4 -19 -1 -8 3 -5 6 6 6 11 1 17 -2 13 -5z m533 -34 c18 -12 2 -12 -25 0 -13
6 -15 9 -5 9 8 0 22 -4 30 -9z m-257 -37 c-7 -2 -21 -2 -30 0 -10 3 -4 5 12 5
17 0 24 -2 18 -5z m1829 -59 c96 -8 97 -25 1 -18 -115 8 -156 13 -173 25 -15
10 -6 9 172 -7z m173 -44 c7 -12 -22 -12 -50 0 -17 7 -15 9 12 9 17 1 35 -3
38 -9z m-125 -49 c18 -6 4 -10 -53 -15 -43 -4 -81 -5 -84 -2 -4 3 1 6 11 6 9
0 14 5 11 10 -7 12 76 12 115 1z m-1743 -7 c-3 -3 -12 -4 -19 -1 -8 3 -5 6 6
6 11 1 17 -2 13 -5z m1866 -51 c-13 -2 -35 -2 -50 0 -16 2 -5 4 22 4 28 0 40
-2 28 -4z m-486 -49 c-3 -3 -12 -4 -19 -1 -8 3 -5 6 6 6 11 1 17 -2 13 -5z
m50 -18 c-14 -11 -15 -15 -5 -19 7 -3 -2 -5 -19 -4 -55 2 -39 35 17 36 23 0
24 -1 7 -13z m144 -30 c-6 -8 -25 -16 -41 -18 -17 -3 -28 -2 -25 0 3 3 -3 11
-13 18 -15 12 -10 13 37 14 44 0 52 -2 42 -14z"/>
<path d="M402 985 c10 -11 79 -15 73 -5 -3 5 -22 10 -42 10 -20 0 -34 -2 -31
-5z"/>
<path d="M568 983 c12 -2 30 -2 40 0 9 3 -1 5 -23 4 -22 0 -30 -2 -17 -4z"/>
<path d="M638 873 c7 -3 16 -2 19 1 4 3 -2 6 -13 5 -11 0 -14 -3 -6 -6z"/>
<path d="M408 793 c6 -2 18 -2 25 0 6 3 1 5 -13 5 -14 0 -19 -2 -12 -5z"/>
<path d="M595 690 c-8 -13 5 -13 25 0 13 8 13 10 -2 10 -9 0 -20 -4 -23 -10z"/>
<path d="M2331 496 c11 -9 99 -15 99 -6 0 6 -23 10 -52 10 -28 0 -49 -2 -47
-4z"/>
<path d="M1698 1223 c12 -2 32 -2 45 0 12 2 2 4 -23 4 -25 0 -35 -2 -22 -4z"/>
<path d="M2368 1203 c7 -3 16 -2 19 1 4 3 -2 6 -13 5 -11 0 -14 -3 -6 -6z"/>
<path d="M2608 1183 c7 -3 16 -2 19 1 4 3 -2 6 -13 5 -11 0 -14 -3 -6 -6z"/>
<path d="M1052 1170 c-73 -8 -85 -16 -48 -30 53 -20 166 -6 166 21 0 4 10 10
23 12 36 7 -73 5 -141 -3z m11 -17 c-7 -2 -19 -2 -25 0 -7 3 -2 5 12 5 14 0
19 -2 13 -5z"/>
<path d="M1795 1160 l30 -8 -35 -2 c-19 -1 -44 -5 -55 -10 -18 -8 -17 -9 7 -9
30 -1 111 -19 143 -32 30 -12 85 -17 85 -7 0 4 15 9 33 9 27 2 28 2 7 6 -14 3
-29 8 -35 12 -5 5 -38 14 -72 21 -35 7 -63 17 -63 21 0 5 -17 8 -37 8 -38 -1
-38 -1 -8 -9z"/>
<path d="M778 1133 c7 -3 16 -2 19 1 4 3 -2 6 -13 5 -11 0 -14 -3 -6 -6z"/>
<path d="M1445 1130 l-50 -6 38 -8 c20 -5 40 -12 43 -17 8 -14 -86 -10 -128 5
-24 9 -52 11 -78 6 -42 -8 -64 -19 -39 -21 8 0 23 -3 34 -5 11 -3 94 -12 185
-20 91 -8 181 -17 200 -19 72 -6 145 -17 149 -21 2 -2 -12 -5 -32 -5 -21 -1
-41 -3 -47 -4 -5 -1 -17 -3 -25 -4 -8 0 -15 -7 -15 -13 0 -10 19 -12 70 -10
38 2 70 8 70 13 0 5 20 9 45 9 25 0 45 4 45 8 0 5 -6 9 -12 10 -7 1 -58 9
-113 17 -55 9 -110 14 -122 12 -13 -2 -23 0 -23 4 0 5 -9 9 -21 9 -11 0 -17 5
-14 10 4 6 10 8 14 6 4 -3 29 -1 57 3 40 7 43 9 16 10 -19 1 -31 5 -27 11 3 6
-5 10 -19 10 -14 0 -28 5 -31 10 -7 11 -88 11 -170 0z m115 -10 c-14 -4 -38
-8 -55 -8 l-30 0 30 8 c17 4 41 8 55 8 l25 0 -25 -8z"/>
<path d="M1220 1120 c-13 -8 -13 -10 2 -10 9 0 20 5 23 10 8 13 -5 13 -25 0z"/>
<path d="M1985 1080 c3 -5 24 -10 46 -10 24 0 38 4 34 10 -3 6 -24 10 -46 10
-24 0 -38 -4 -34 -10z"/>
<path d="M2285 1079 c-3 -4 2 -10 11 -13 23 -9 54 -7 54 3 0 11 -59 20 -65 10z"/>
<path d="M1083 1074 c3 -3 45 -7 94 -10 58 -2 79 0 63 5 -28 10 -167 14 -157
5z"/>
<path d="M2558 1053 c7 -3 16 -2 19 1 4 3 -2 6 -13 5 -11 0 -14 -3 -6 -6z"/>
<path d="M2608 1053 c6 -2 18 -2 25 0 6 3 1 5 -13 5 -14 0 -19 -2 -12 -5z"/>
<path d="M2215 1031 c6 -11 45 -10 45 1 0 4 -12 8 -26 8 -14 0 -23 -4 -19 -9z"/>
<path d="M1958 1023 c6 -2 18 -2 25 0 6 3 1 5 -13 5 -14 0 -19 -2 -12 -5z"/>
<path d="M2430 1012 c-37 -6 -49 -22 -17 -22 49 0 28 -19 -25 -23 -38 -2 -27
-4 37 -6 58 -1 83 -5 70 -10 -11 -5 -23 -7 -27 -5 -4 3 -9 0 -13 -5 -11 -18
70 -31 200 -31 119 0 131 2 132 18 1 10 -8 24 -19 31 -18 11 -20 11 -15 -1 8
-23 -33 -16 -59 9 -17 17 -35 23 -76 24 -126 2 -156 4 -152 11 7 10 -8 14 -36
10z m226 -55 c2 -2 -14 -4 -36 -5 -22 -1 -40 2 -40 7 0 8 67 7 76 -2z m-55
-26 c-13 -4 -42 -4 -65 -2 l-41 5 40 6 c22 3 51 3 65 1 l25 -5 -24 -5z m76 -7
c-3 -3 -12 -4 -19 -1 -8 3 -5 6 6 6 11 1 17 -2 13 -5z"/>
<path d="M1497 999 c7 -7 46 -14 95 -16 96 -3 72 10 -38 22 -55 5 -67 4 -57
-6z"/>
<path d="M2720 1006 c0 -2 16 -6 35 -8 19 -2 35 0 35 4 0 4 -16 8 -35 8 -19 0
-35 -2 -35 -4z"/>
<path d="M2040 991 c-63 -6 -64 -6 -24 -12 51 -8 136 0 128 12 -3 5 -13 8 -22
7 -9 -1 -46 -4 -82 -7z"/>
<path d="M1468 983 c7 -3 16 -2 19 1 4 3 -2 6 -13 5 -11 0 -14 -3 -6 -6z"/>
<path d="M1838 963 c7 -3 16 -2 19 1 4 3 -2 6 -13 5 -11 0 -14 -3 -6 -6z"/>
<path d="M2068 953 c6 -2 18 -2 25 0 6 3 1 5 -13 5 -14 0 -19 -2 -12 -5z"/>
<path d="M2403 933 c9 -2 23 -2 30 0 6 3 -1 5 -18 5 -16 0 -22 -2 -12 -5z"/>
<path d="M1493 923 c9 -2 23 -2 30 0 6 3 -1 5 -18 5 -16 0 -22 -2 -12 -5z"/>
<path d="M1558 913 c12 -2 30 -2 40 0 9 3 -1 5 -23 4 -22 0 -30 -2 -17 -4z"/>
<path d="M2724 879 c-14 -5 -11 -7 12 -6 17 0 37 -4 44 -8 8 -5 11 -3 8 5 -5
15 -36 20 -64 9z"/>
<path d="M2588 873 c12 -2 30 -2 40 0 9 3 -1 5 -23 4 -22 0 -30 -2 -17 -4z"/>
<path d="M2070 840 c36 -12 60 -12 60 0 0 6 -19 10 -42 9 -37 -1 -39 -2 -18
-9z"/>
<path d="M2560 821 c-27 -5 -9 -9 85 -20 66 -7 126 -15 133 -17 6 -2 12 5 12
15 0 10 -6 18 -12 18 -7 0 -51 2 -98 5 -47 3 -101 3 -120 -1z"/>
<path d="M2403 793 c15 -2 39 -2 55 0 15 2 2 4 -28 4 -30 0 -43 -2 -27 -4z"/>
<path d="M2528 703 c12 -2 30 -2 40 0 9 3 -1 5 -23 4 -22 0 -30 -2 -17 -4z"/>
<path d="M2728 683 c6 -2 10 -9 6 -14 -3 -5 9 -9 25 -9 21 0 31 5 31 15 0 11
-10 15 -37 14 -21 0 -32 -3 -25 -6z"/>
<path d="M2508 653 c7 -3 16 -2 19 1 4 3 -2 6 -13 5 -11 0 -14 -3 -6 -6z"/>
<path d="M2618 163 c7 -3 16 -2 19 1 4 3 -2 6 -13 5 -11 0 -14 -3 -6 -6z"/>
</g>
</svg>
